<?xml version="1.0"?><svg width="224.64314" height="465.37302" xmlns="http://www.w3.org/2000/svg">
 <metadata id="metadata2442">image/svg+xml</metadata>

 <g>
  <title>Layer 1</title>
  <g id="layer1">
   <path fill="#000000" fill-rule="evenodd" stroke="#000000" stroke-width="1px" id="path2518" d="m73.760803,103.192688c-22.258957,-11.158875 -8.467392,-32.616638 1.214081,-31.581055c12.286621,-3.203857 29.58696,13.788025 15.248703,26.382263c3.574188,4.007446 1.299728,3.899109 1.299728,3.899109l-7.798157,8.664612c0,0 -6.63945,22.148865 -11.69725,27.293457c4.13237,6.064026 4.101624,9.744385 4.332275,14.730042c5.438477,3.223694 7.848495,11.184937 7.848495,11.184937l3.286392,-0.257751c0,0 -0.369797,-5.43811 0.509842,-10.189636c0.343475,-6.743347 2.625656,-8.434937 2.625656,-8.434937c0,0 1.402771,-2.298767 3.058884,-3.566406c11.765427,-8.467651 24.17923,5.740784 19.495651,14.729492c-2.692978,5.389587 -5.539276,7.831421 -6.06543,8.664795c-5.351013,3.973389 -3.39151,11.824219 -3.39151,11.824219c3.308228,0.254761 6.064041,-0.533752 7.980057,2.599548c1.809265,2.457642 5.915436,7.13092 7.187317,12.077759c0,0 1.737694,7.565186 1.22094,15.088501c6.070091,5.991882 10.344887,18.06897 10.344887,18.06897l12.183258,27.42041c3.892685,1.823853 6.464355,5.012939 10.21875,4.645386c0.260803,1.780151 1.20697,2.435791 4.23111,1.80072c-4.729691,5.914246 3.049606,6.465576 4.152878,9.813599l-5.940323,-3.288574l4.181396,5.021423l-5.581848,-3.135742l1.73526,6.805237l-4.765457,-7.365051c-4.022476,-3.887817 -8.419174,-3.848389 -12.058945,-11.754456c-9.134247,-8.223877 -17.198608,-16.274231 -19.823044,-31.142639c0,0 -7.969131,-10.081665 -8.408859,-16.889282c-4.039154,-3.819885 -4.440674,-2.70752 -7.364975,0c-2.924301,2.70813 -4.332291,10.831299 -4.332291,10.831299c2.833572,6.075562 2.528671,10.931458 1.73291,15.596191l-0.433243,8.23114c8.388367,8.227539 13.152435,20.879028 18.858612,25.941711c6.148354,-5.193665 7.259506,-4.154114 9.964615,-3.465698c5.736496,2.026978 7.32135,6.228394 8.867996,10.449829c9.430862,-0.779968 11.889084,3.509949 17.329025,5.632202l4.332397,0.433044c4.775787,-3.284912 8.784912,-3.614868 12.130493,-1.386536c3.015656,3.000488 5.856613,6.11322 6.065247,10.91748c4.927429,3.685852 7.542145,8.111633 7.365051,13.430298c0.536758,10.301819 -3.985474,11.459045 -8.231155,9.530884l-13.430283,-16.029236c-1.815933,-0.795715 -2.547409,-0.352966 -5.632202,-2.599548c-1.642456,-1.760132 -1.174835,-2.464294 -1.299774,-3.465698c-5.862061,0.809753 -12.155975,0.613831 -18.628799,0c-3.406235,2.000305 -2.676605,5.03479 -3.032623,7.798096c-5.312546,-0.369995 -10.013733,-2.371521 -14.730072,-4.332397c-12.229599,3.307983 -23.894226,-0.263245 -35.524902,-3.032593c-0.953934,1.556335 -1.905991,3.113892 -0.866409,6.065247c2.256577,3.500244 3.019043,7.969116 3.236115,11.673157c6.483932,3.191528 11.58165,7.769592 16.029541,12.997192c6.302216,-0.582825 11.36731,1.484192 16.259537,3.923035c-5.239761,16.439819 -6.815521,11.922424 -6.836151,14.142334c-0.732666,2.949524 -1.32283,6.660828 -3.56163,9.685608c-3.342926,6.438232 -8.7547,2.740295 -9.09787,0.433044c-0.975784,-4.483398 -0.878128,-7.28009 -0.433243,-9.530945c-2.685272,-2.556519 -4.13681,-5.729797 -5.198761,-9.097839c1.986908,-0.610168 1.955795,-1.58728 1.732956,-2.599609c-11.216156,-9.469055 -26.205872,-13.829956 -39.424118,-21.661438c-2.328918,-2.756592 -3.755112,-6.296326 -3.032623,-11.697388c-1.299713,-0.026123 -2.599411,-0.355408 -3.899109,-2.599609c0.721008,-2.121033 1.699295,-3.38501 3.032623,-3.465637c-0.179611,-5.063904 -1.287552,-9.432129 0,-15.596191c-1.013901,-1.152405 -2.341583,-1.990601 -2.59938,-3.899353c-0.214386,-3.331665 0.511719,-4.970459 1.299683,-6.498352c-0.202911,-1.732849 0.068741,-3.465637 -0.86644,-5.199097c2.008362,-3.032654 1.62561,-6.065247 2.166138,-9.0979c2.188766,-0.258362 3.57753,-1.583618 5.198776,-2.598938c2.525269,-26.682861 7.118591,-54.667297 9.531113,-77.115417c0,0 -7.798157,-16.679382 -5.632004,-31.192932c2.166138,-14.513123 14.296631,-26.860229 14.296631,-26.860229c0,0 -5.740326,-4.54895 -2.166138,-7.798157l0,0z"/>
  </g>
 </g>
</svg>