<?xml version="1.0" standalone="no"?>
<!DOCTYPE svg PUBLIC "-//W3C//DTD SVG 20010904//EN"
 "http://www.w3.org/TR/2001/REC-SVG-20010904/DTD/svg10.dtd">
<svg version="1.0" xmlns="http://www.w3.org/2000/svg"
 width="689.000000pt" height="689.000000pt" viewBox="0 0 689.000000 689.000000"
 preserveAspectRatio="xMidYMid meet">
<metadata>
Created by potrace 1.11, written by Peter Selinger 2001-2013
</metadata>
<g transform="translate(0.000000,689.000000) scale(0.100000,-0.100000)"
fill="#000000" stroke="none">
<path d="M229 5838 c-5 -10 -3 -1121 1 -1123 4 -2 19 26 35 63 37 86 137 278
188 361 49 82 129 204 137 211 3 3 30 39 60 80 81 111 130 167 273 312 48 50
87 92 87 94 0 4 -779 6 -781 2z"/>
<path d="M1012 5743 c-105 -104 -166 -173 -281 -318 l-71 -89 97 -39 c115 -45
507 -177 610 -206 l71 -19 0 341 c0 267 -3 348 -14 368 -23 45 -69 59 -198 59
l-115 0 -99 -97z"/>
<path d="M2196 5391 l-225 -449 82 -15 c45 -9 96 -19 112 -21 17 -3 68 -12
115 -20 124 -22 139 -24 205 -31 32 -4 62 -8 65 -10 3 -1 39 -6 80 -9 41 -4
89 -9 105 -11 60 -7 201 -18 253 -19 l52 -1 181 390 c179 388 195 421 251 545
17 36 34 73 39 83 9 16 -20 17 -541 17 l-550 0 -224 -449z"/>
<path d="M3670 5307 l0 -509 148 6 c81 4 163 8 182 10 19 3 65 7 102 11 37 3
77 8 90 10 13 2 50 7 82 10 33 3 62 8 65 9 3 2 35 7 71 10 36 4 74 9 85 11 11
3 32 7 48 9 442 74 900 206 1305 378 l143 60 -27 37 c-74 99 -182 227 -271
319 -97 101 -99 102 -158 112 -131 20 -291 23 -1062 25 l-803 1 0 -509z"/>
<path d="M5762 5703 c92 -97 132 -144 212 -248 42 -55 80 -104 84 -110 5 -5
33 -48 63 -95 204 -314 342 -627 434 -986 36 -140 75 -350 75 -405 0 -31 1
-32 14 -14 13 20 65 174 85 255 40 159 48 228 45 384 -3 189 -7 231 -40 386
-26 119 -109 326 -136 338 -5 2 -8 9 -8 16 0 18 -104 144 -167 204 -98 91
-244 180 -403 245 -56 23 -280 87 -306 87 -3 0 18 -26 48 -57z"/>
<path d="M522 5118 c-88 -148 -179 -329 -217 -433 -10 -27 -22 -54 -25 -60 -4
-5 -18 -41 -31 -80 -23 -69 -23 -74 -24 -577 l0 -508 1153 0 c1095 0 1154 1
1147 18 -4 9 -16 40 -27 67 l-19 50 65 138 c36 76 66 140 66 142 0 2 23 52 51
112 28 59 62 133 76 163 14 30 40 87 58 125 18 39 43 93 55 120 12 28 43 93
67 145 63 133 84 182 80 187 -5 4 -54 9 -180 18 -54 3 -105 8 -115 9 -9 2 -48
7 -86 11 -38 4 -79 9 -90 10 -12 2 -43 6 -70 9 -67 8 -286 44 -367 61 -36 8
-85 17 -110 20 l-44 6 -245 -490 c-134 -270 -246 -488 -248 -486 -2 2 -4 251
-4 552 l0 549 -171 53 c-95 29 -279 90 -410 137 -131 46 -240 84 -241 84 -2 0
-44 -69 -94 -152z"/>
<path d="M5930 5219 c-41 -17 -88 -37 -105 -44 -113 -50 -367 -140 -521 -185
-60 -18 -113 -37 -119 -43 -7 -7 -6 -8 1 -4 16 9 157 -28 214 -55 114 -54 197
-169 216 -296 5 -36 5 -210 -1 -242 -2 -14 -6 -42 -9 -64 -10 -62 -55 -188
-86 -236 -110 -172 -283 -249 -550 -246 l-95 1 0 537 c1 295 -2 535 -6 533 -3
-2 -19 -7 -36 -9 -32 -6 -166 -32 -198 -39 -42 -10 -283 -47 -338 -52 -32 -4
-67 -8 -77 -10 -10 -2 -50 -7 -87 -10 -37 -4 -84 -8 -103 -10 -19 -2 -87 -7
-150 -11 -117 -7 -175 -11 -197 -13 -10 -1 -13 -134 -13 -631 l0 -630 1323 2
1322 3 55 30 c61 34 147 115 185 175 22 34 24 47 19 97 -6 58 -48 330 -57 368
-70 299 -150 517 -286 780 -109 211 -183 329 -207 332 -10 2 -53 -11 -94 -28z"/>
<path d="M228 3368 c-2 -7 -4 -227 -3 -488 l2 -475 47 -120 c84 -214 272 -567
353 -664 l28 -33 160 61 c88 33 264 95 392 137 l231 76 0 330 c0 181 2 331 4
333 2 2 74 -121 161 -273 86 -152 161 -283 165 -290 7 -10 31 -8 123 13 63 14
125 27 138 30 14 2 47 9 75 15 106 22 198 38 251 44 22 3 85 12 140 20 55 8
125 18 155 21 30 4 69 8 85 10 17 2 68 7 115 11 47 4 96 8 110 10 14 1 46 2
72 3 l48 1 -21 53 c-11 28 -42 104 -69 167 -114 269 -260 620 -260 625 0 2
-11 28 -24 57 -13 29 -50 117 -82 195 l-59 143 -1166 0 c-925 0 -1168 -3
-1171 -12z"/>
<path d="M3670 2761 l0 -618 94 -2 c52 -1 105 -4 117 -6 13 -2 69 -6 124 -10
55 -4 114 -8 130 -9 67 -7 151 -17 175 -21 14 -2 45 -7 70 -10 92 -12 254 -41
449 -81 13 -3 28 -6 34 -7 8 -1 11 136 12 471 l0 473 220 -1 c293 -2 378 -23
472 -116 97 -97 115 -176 116 -494 0 -135 -2 -268 -6 -296 -11 -80 -49 -177
-88 -219 -18 -20 -17 -20 29 -38 111 -43 251 -102 304 -129 32 -15 66 -28 77
-28 31 0 145 185 265 430 99 201 203 493 230 643 3 15 7 35 10 45 6 19 14 60
22 112 2 19 9 58 14 85 12 66 19 125 26 210 13 149 17 134 -61 187 l-70 47
-1382 1 -1383 0 0 -619z"/>
<path d="M6649 3194 c-1 -40 -24 -211 -45 -344 -15 -94 -78 -330 -122 -460
-65 -188 -128 -332 -217 -495 -69 -126 -76 -139 -142 -239 -184 -281 -417
-541 -681 -758 -51 -42 -89 -79 -85 -81 11 -7 313 -1 383 7 488 56 808 254
987 611 48 94 104 263 119 355 2 14 7 36 10 50 23 101 31 263 30 580 -2 324
-4 350 -25 424 -39 137 -120 287 -190 350 -21 19 -21 19 -22 0z"/>
<path d="M226 1513 c1 -373 2 -683 3 -688 1 -8 172 -11 536 -11 294 0 535 1
535 1 0 1 -26 22 -58 47 -275 217 -590 572 -774 875 -46 75 -179 333 -221 431
-6 12 -13 22 -16 22 -3 0 -5 -305 -5 -677z"/>
<path d="M2947 2064 c-1 -1 -36 -5 -77 -8 -125 -12 -163 -16 -210 -23 -25 -3
-49 -7 -55 -7 -81 -10 -161 -20 -165 -21 -3 -1 -30 -5 -60 -9 -30 -5 -64 -10
-75 -12 -11 -2 -58 -11 -105 -19 -47 -8 -96 -17 -110 -20 -41 -8 -95 -19 -100
-20 -3 -1 -42 -10 -87 -20 -46 -10 -83 -22 -83 -27 0 -5 74 -138 163 -296 90
-158 175 -307 189 -332 14 -25 63 -110 108 -190 46 -80 94 -165 108 -190 14
-25 27 -47 29 -50 5 -5 1213 -8 1213 -3 0 6 -91 225 -116 281 -13 29 -24 58
-24 65 0 7 -4 17 -8 22 -5 6 -21 42 -37 80 -16 39 -36 88 -46 110 -10 22 -33
78 -52 125 -41 103 -153 372 -175 420 -8 19 -25 60 -37 90 l-21 55 -83 0 c-45
1 -83 0 -84 -1z"/>
<path d="M3670 1443 l0 -629 779 0 778 1 94 72 c129 98 184 147 329 293 114
114 273 300 300 349 12 23 -6 34 -130 85 -36 15 -78 33 -95 41 -16 7 -73 29
-126 49 l-97 35 -38 -18 c-76 -36 -143 -45 -362 -46 -184 -1 -214 1 -221 14
-4 9 -7 62 -6 119 1 98 -3 113 -30 118 -5 1 -42 9 -80 18 -39 8 -84 17 -100
20 -65 12 -142 26 -170 30 -52 8 -119 18 -135 21 -8 2 -42 6 -75 10 -33 4 -71
8 -85 10 -14 2 -56 7 -95 11 -38 3 -79 8 -90 10 -11 2 -93 7 -182 10 l-163 7
0 -630z"/>
<path d="M1150 1691 c-146 -49 -309 -107 -362 -128 l-97 -38 35 -45 c108 -138
259 -300 385 -415 106 -96 261 -220 306 -243 l21 -12 0 485 c0 354 -3 485 -12
485 -6 0 -130 -40 -276 -89z"/>
</g>
</svg>
